<svg width="256" height="256" viewBox="0 0 256 256" fill="none" xmlns="http://www.w3.org/2000/svg">
  <path d="M255.153 37.938L134.926 225.977c-2.483 4.44-8.862 4.466-11.382.048L.875 37.958C-1.813 32.22 2.582 25.377 8.867 25.377h238.08c6.323 0 10.74 6.891 8.206 12.561z" fill="#FFD026"/>
  <path d="M185.432 144.971l-40.589 77.045c-1.713 3.252-6.111 3.252-7.824 0l-40.589-77.045a4.382 4.382 0 013.912-6.35h81.178a4.382 4.382 0 013.912 6.35z" fill="#F0B90B"/>
  <path d="M153.908 142.31l-25.448 48.26a2.19 2.19 0 01-3.912 0l-25.448-48.26a2.19 2.19 0 011.956-3.175h51.896a2.19 2.19 0 011.956 3.175z" fill="#F8D33A"/>
</svg>
